<?xml version="1.0" encoding="utf-8"?>
<!-- Generator: Adobe Illustrator 27.0.0, SVG Export Plug-In . SVG Version: 6.00 Build 0)  -->
<svg version="1.1" id="Layer_1" xmlns="http://www.w3.org/2000/svg" xmlns:xlink="http://www.w3.org/1999/xlink" x="0px" y="0px"
	 viewBox="0 0 256 256" style="enable-background:new 0 0 256 256;" xml:space="preserve">
<style type="text/css">
	.st0{fill:#FFFFFF;}
</style>
<g>
	<path class="st0" d="M234.04,141.88c-3.68-1.64-7.35-3.28-11.02-4.93c-18.73-8.44-37.44-16.89-56.2-25.26
		c-0.83-0.38-2.08-0.25-2.98,0.07c-21.22,7.72-42.42,15.5-63.62,23.27c-0.29,0.1-0.61,0.15-0.86,0.31
		c-5.63,3.48-10.66,1.99-16.3-0.81c-26.37-13.1-52.96-25.77-79.46-38.6c-0.61-0.3-1.2-0.66-2.01-1.12
		c55.45-19.43,110.67-38.79,166.15-58.23c7.97,15.84,15.87,31.55,23.77,47.26c-0.11,0.11-0.23,0.24-0.34,0.35
		c-2.61-2.04-5.23-4.07-7.83-6.12c-3.48-2.73-6.93-5.49-10.45-8.16c-0.55-0.41-1.56-0.66-2.18-0.45
		c-26.54,9.01-53.07,18.1-79.8,27.23c2.27,2.1,4.42,4.11,6.72,6.23c9.38-3.17,18.86-6.37,28.33-9.56
		c13.14-4.43,26.29-8.82,39.41-13.29c1.35-0.46,2.26-0.3,3.3,0.67c6.78,6.32,13.61,12.58,20.41,18.87
		c9.78,9.03,19.56,18.06,29.32,27.1C223.7,131.62,228.99,136.56,234.04,141.88z"/>
	<path class="st0" d="M254.4,161.25c-55.19,19.01-110.13,37.93-165.32,56.94c-7.9-15.9-15.79-31.76-23.68-47.61
		c0.17-0.12,0.32-0.24,0.49-0.38c2.24,1.99,4.48,3.97,6.71,5.97c3.54,3.16,7.09,6.31,10.59,9.51c1.13,1.03,2.08,1.24,3.66,0.66
		c26.32-9.67,52.68-19.23,79.45-28.97c-2.82-2.36-5.44-4.59-8.14-6.73c-0.32-0.25-1.16-0.03-1.68,0.16
		c-21.56,8.13-43.13,16.25-64.65,24.49c-1.74,0.66-2.8,0.44-4.07-0.75c-8.88-8.28-17.79-16.53-26.71-24.77
		c-9.27-8.56-18.55-17.08-27.81-25.63c-3.59-3.32-7.15-6.67-10.73-10.01c0.13-0.17,0.25-0.34,0.38-0.51
		c3.4,1.62,6.8,3.21,10.19,4.85c17.88,8.65,35.76,17.3,53.61,25.98c1.32,0.64,2.45,0.74,3.9,0.23
		c24.18-8.58,48.39-17.07,72.56-25.63c1.74-0.62,3.14-0.54,4.8,0.26c28.01,13.61,56.05,27.15,84.08,40.7
		C252.77,160.37,253.49,160.77,254.4,161.25z"/>
	<path class="st0" d="M246.22,169.78c-60.58,28.7-121.16,57.39-182.01,86.22v-76.42c0.24-0.03,0.49-0.08,0.74-0.11
		c0.67,1.73,1.38,3.46,2.02,5.21c4.52,12.3,9.04,24.6,13.56,36.89c1.36,3.7,3.22,4.59,6.9,3.29c52.49-18.4,104.99-36.8,157.48-55.19
		c0.35-0.12,0.71-0.21,1.06-0.31C246.04,169.5,246.13,169.64,246.22,169.78z"/>
	<path class="st0" d="M194.58,78.33c-0.16,0.04-0.31,0.09-0.46,0.12c-6.95-16.67-13.91-33.36-20.94-50.18
		C119.33,46.91,65.71,65.46,12.1,84.01c-0.07-0.18-0.15-0.38-0.23-0.57C72.2,55.69,132.52,27.92,193.21,0
		C193.66,26.33,194.12,52.34,194.58,78.33z"/>
	<path class="st0" d="M237.06,136.89c-3.82-3.49-7.33-6.65-10.78-9.87c-5.63-5.26-11.26-10.52-16.81-15.86
		c-0.85-0.81-1.51-1.95-1.92-3.07c-2.83-7.57-5.58-15.18-8.32-22.79c-0.31-0.86-0.58-1.81-0.57-2.71
		c0.16-11.75,0.36-23.5,0.56-35.25c0.01-0.52,0.1-1.05,0.2-2.1c13.42,11.59,23.36,25.14,29.93,41.17
		C235.91,102.44,238.51,119.07,237.06,136.89z"/>
	<path class="st0" d="M58.68,169.64c-0.17,12.61-0.38,25.23-0.58,37.85c0,0.14-0.09,0.27-0.31,0.91
		c-25.72-24-37.64-53.25-36.14-88.59c2.01,1.79,3.76,3.25,5.4,4.81c7.46,7.08,14.89,14.18,22.3,21.3c0.7,0.66,1.27,1.57,1.62,2.47
		c2.46,6.32,4.85,12.66,7.23,19.01C58.47,168.12,58.69,168.9,58.68,169.64z"/>
	<path class="st0" d="M217.23,189.97c-14.73,27.41-65.29,50.89-96.31,44.68C152.82,219.85,184.72,205.05,217.23,189.97z"/>
	<path class="st0" d="M137.3,20.23c-31.44,14.52-62.89,29.03-94.33,43.56c-0.14-0.23-0.27-0.45-0.41-0.67
		C66.67,32.64,98.09,17.99,137.3,20.23z"/>
</g>
</svg>
